<mxfile host="app.diagrams.net" agent="Mozilla/5.0 (Windows NT 10.0; Win64; x64) AppleWebKit/537.36 (KHTML, like Gecko) Chrome/139.0.0.0 Safari/537.36 Edg/139.0.0.0" version="28.1.2">
  <diagram name="Page-1" id="TfpFZSZRny4TqOovHkFk">
    <mxGraphModel dx="961" dy="2732" grid="1" gridSize="10" guides="1" tooltips="1" connect="1" arrows="1" fold="1" page="1" pageScale="1" pageWidth="850" pageHeight="1100" math="0" shadow="0">
      <root>
        <mxCell id="0" />
        <mxCell id="1" parent="0" />
        <mxCell id="5S8bCcxwC9r8NOPQuVtc-16" value="" style="html=1;shadow=0;dashed=0;align=center;verticalAlign=middle;shape=mxgraph.arrows2.arrow;dy=0.6;dx=40;direction=south;notch=0;labelBackgroundColor=none;fillColor=#BC6C25;strokeColor=#DDA15E;fontColor=#FEFAE0;" parent="1" vertex="1">
          <mxGeometry x="257.5" y="80" width="65" height="60" as="geometry" />
        </mxCell>
        <mxCell id="5S8bCcxwC9r8NOPQuVtc-18" value="" style="html=1;shadow=0;dashed=0;align=center;verticalAlign=middle;shape=mxgraph.arrows2.arrow;dy=0.6;dx=40;direction=south;notch=0;labelBackgroundColor=none;fillColor=#BC6C25;strokeColor=#DDA15E;fontColor=#FEFAE0;" parent="1" vertex="1">
          <mxGeometry x="260" y="220" width="70" height="70" as="geometry" />
        </mxCell>
        <mxCell id="5S8bCcxwC9r8NOPQuVtc-20" value="" style="html=1;shadow=0;dashed=0;align=center;verticalAlign=middle;shape=mxgraph.arrows2.arrow;dy=0.6;dx=40;direction=south;notch=0;labelBackgroundColor=none;fillColor=#BC6C25;strokeColor=#DDA15E;fontColor=#FEFAE0;" parent="1" vertex="1">
          <mxGeometry x="260" y="370" width="70" height="60" as="geometry" />
        </mxCell>
        <mxCell id="5S8bCcxwC9r8NOPQuVtc-25" style="edgeStyle=orthogonalEdgeStyle;rounded=0;orthogonalLoop=1;jettySize=auto;html=1;exitX=1;exitY=0.5;exitDx=0;exitDy=0;exitPerimeter=0;labelBackgroundColor=none;strokeColor=#DDA15E;fontColor=default;" parent="1" edge="1">
          <mxGeometry relative="1" as="geometry">
            <mxPoint x="375" y="630" as="sourcePoint" />
            <mxPoint x="375" y="630" as="targetPoint" />
          </mxGeometry>
        </mxCell>
        <mxCell id="5S8bCcxwC9r8NOPQuVtc-26" value="" style="html=1;shadow=0;dashed=0;align=center;verticalAlign=middle;shape=mxgraph.arrows2.arrow;dy=0.6;dx=40;direction=south;notch=0;labelBackgroundColor=none;fillColor=#BC6C25;strokeColor=#DDA15E;fontColor=#FEFAE0;" parent="1" vertex="1">
          <mxGeometry x="260" y="515" width="70" height="70" as="geometry" />
        </mxCell>
        <mxCell id="5S8bCcxwC9r8NOPQuVtc-32" value="deploy" style="ellipse;whiteSpace=wrap;html=1;labelBackgroundColor=none;fillColor=#BC6C25;strokeColor=#DDA15E;fontColor=#FEFAE0;" parent="1" vertex="1">
          <mxGeometry x="235" y="730" width="120" height="80" as="geometry" />
        </mxCell>
        <mxCell id="HoBaya9ODDxgN1XBrwVV-1" value="plan" style="ellipse;whiteSpace=wrap;html=1;labelBackgroundColor=none;fillColor=#BC6C25;strokeColor=#DDA15E;fontColor=#FEFAE0;" parent="1" vertex="1">
          <mxGeometry x="230" width="120" height="80" as="geometry" />
        </mxCell>
        <mxCell id="HoBaya9ODDxgN1XBrwVV-2" value="develop" style="ellipse;whiteSpace=wrap;html=1;labelBackgroundColor=none;fillColor=#BC6C25;strokeColor=#DDA15E;fontColor=#FEFAE0;" parent="1" vertex="1">
          <mxGeometry x="230" y="140" width="120" height="80" as="geometry" />
        </mxCell>
        <mxCell id="HoBaya9ODDxgN1XBrwVV-3" value="build" style="ellipse;whiteSpace=wrap;html=1;labelBackgroundColor=none;fillColor=#BC6C25;strokeColor=#DDA15E;fontColor=#FEFAE0;" parent="1" vertex="1">
          <mxGeometry x="230" y="290" width="120" height="80" as="geometry" />
        </mxCell>
        <mxCell id="HoBaya9ODDxgN1XBrwVV-4" value="test" style="ellipse;whiteSpace=wrap;html=1;labelBackgroundColor=none;fillColor=#BC6C25;strokeColor=#DDA15E;fontColor=#FEFAE0;" parent="1" vertex="1">
          <mxGeometry x="235" y="430" width="120" height="80" as="geometry" />
        </mxCell>
        <mxCell id="HoBaya9ODDxgN1XBrwVV-5" style="edgeStyle=orthogonalEdgeStyle;rounded=0;orthogonalLoop=1;jettySize=auto;html=1;exitX=0;exitY=0;exitDx=10;exitDy=21;exitPerimeter=0;entryX=0.586;entryY=0.994;entryDx=0;entryDy=0;entryPerimeter=0;labelBackgroundColor=none;strokeColor=#DDA15E;fontColor=default;" parent="1" source="5S8bCcxwC9r8NOPQuVtc-26" target="HoBaya9ODDxgN1XBrwVV-4" edge="1">
          <mxGeometry relative="1" as="geometry" />
        </mxCell>
        <mxCell id="HoBaya9ODDxgN1XBrwVV-6" value="release" style="ellipse;whiteSpace=wrap;html=1;labelBackgroundColor=none;fillColor=#BC6C25;strokeColor=#DDA15E;fontColor=#FEFAE0;" parent="1" vertex="1">
          <mxGeometry x="230" y="580" width="120" height="80" as="geometry" />
        </mxCell>
        <mxCell id="HoBaya9ODDxgN1XBrwVV-7" value="" style="html=1;shadow=0;dashed=0;align=center;verticalAlign=middle;shape=mxgraph.arrows2.arrow;dy=0.6;dx=40;direction=south;notch=0;labelBackgroundColor=none;fillColor=#BC6C25;strokeColor=#DDA15E;fontColor=#FEFAE0;" parent="1" vertex="1">
          <mxGeometry x="260" y="660" width="70" height="70" as="geometry" />
        </mxCell>
        <mxCell id="HoBaya9ODDxgN1XBrwVV-9" value="" style="html=1;shadow=0;dashed=0;align=center;verticalAlign=middle;shape=mxgraph.arrows2.arrow;dy=0.6;dx=40;direction=south;notch=0;labelBackgroundColor=none;fillColor=#BC6C25;strokeColor=#DDA15E;fontColor=#FEFAE0;" parent="1" vertex="1">
          <mxGeometry x="260" y="810" width="70" height="70" as="geometry" />
        </mxCell>
        <mxCell id="HoBaya9ODDxgN1XBrwVV-10" value="operate" style="ellipse;whiteSpace=wrap;html=1;labelBackgroundColor=none;fillColor=#BC6C25;strokeColor=#DDA15E;fontColor=#FEFAE0;" parent="1" vertex="1">
          <mxGeometry x="235" y="880" width="120" height="80" as="geometry" />
        </mxCell>
        <mxCell id="HoBaya9ODDxgN1XBrwVV-11" value="" style="html=1;shadow=0;dashed=0;align=center;verticalAlign=middle;shape=mxgraph.arrows2.arrow;dy=0.6;dx=40;direction=south;notch=0;labelBackgroundColor=none;fillColor=#BC6C25;strokeColor=#DDA15E;fontColor=#FEFAE0;" parent="1" vertex="1">
          <mxGeometry x="260" y="960" width="70" height="60" as="geometry" />
        </mxCell>
        <mxCell id="HoBaya9ODDxgN1XBrwVV-12" value="monitor" style="ellipse;whiteSpace=wrap;html=1;labelBackgroundColor=none;fillColor=#BC6C25;strokeColor=#DDA15E;fontColor=#FEFAE0;" parent="1" vertex="1">
          <mxGeometry x="235" y="1020" width="120" height="80" as="geometry" />
        </mxCell>
        <mxCell id="fGPVnxJm0E0k_WgDvvx4-1" value="student information system" style="rounded=0;whiteSpace=wrap;html=1;labelBackgroundColor=none;fillColor=#BC6C25;strokeColor=#DDA15E;fontColor=#FEFAE0;" vertex="1" parent="1">
          <mxGeometry x="1020" y="-1530" width="420" height="60" as="geometry" />
        </mxCell>
        <mxCell id="fGPVnxJm0E0k_WgDvvx4-56" value="" style="edgeStyle=orthogonalEdgeStyle;rounded=0;orthogonalLoop=1;jettySize=auto;html=1;labelBackgroundColor=none;strokeColor=#DDA15E;fontColor=default;" edge="1" parent="1" source="fGPVnxJm0E0k_WgDvvx4-2" target="fGPVnxJm0E0k_WgDvvx4-4">
          <mxGeometry relative="1" as="geometry" />
        </mxCell>
        <mxCell id="fGPVnxJm0E0k_WgDvvx4-2" value="login to&lt;div&gt;system&lt;/div&gt;" style="ellipse;whiteSpace=wrap;html=1;aspect=fixed;labelBackgroundColor=none;fillColor=#BC6C25;strokeColor=#DDA15E;fontColor=#FEFAE0;" vertex="1" parent="1">
          <mxGeometry x="1130" y="-1440" width="80" height="80" as="geometry" />
        </mxCell>
        <mxCell id="fGPVnxJm0E0k_WgDvvx4-59" value="" style="edgeStyle=orthogonalEdgeStyle;rounded=0;orthogonalLoop=1;jettySize=auto;html=1;labelBackgroundColor=none;strokeColor=#DDA15E;fontColor=default;" edge="1" parent="1" source="fGPVnxJm0E0k_WgDvvx4-3" target="fGPVnxJm0E0k_WgDvvx4-5">
          <mxGeometry relative="1" as="geometry" />
        </mxCell>
        <mxCell id="fGPVnxJm0E0k_WgDvvx4-3" value="check roles of&lt;div&gt;access&lt;/div&gt;" style="ellipse;whiteSpace=wrap;html=1;aspect=fixed;labelBackgroundColor=none;fillColor=#BC6C25;strokeColor=#DDA15E;fontColor=#FEFAE0;" vertex="1" parent="1">
          <mxGeometry x="1270" y="-1440" width="80" height="80" as="geometry" />
        </mxCell>
        <mxCell id="fGPVnxJm0E0k_WgDvvx4-4" value="check credentials" style="ellipse;whiteSpace=wrap;html=1;aspect=fixed;labelBackgroundColor=none;fillColor=#BC6C25;strokeColor=#DDA15E;fontColor=#FEFAE0;" vertex="1" parent="1">
          <mxGeometry x="1130" y="-1310" width="80" height="80" as="geometry" />
        </mxCell>
        <mxCell id="fGPVnxJm0E0k_WgDvvx4-5" value="manage&amp;nbsp;&lt;div&gt;modules&lt;/div&gt;" style="ellipse;whiteSpace=wrap;html=1;aspect=fixed;labelBackgroundColor=none;fillColor=#BC6C25;strokeColor=#DDA15E;fontColor=#FEFAE0;" vertex="1" parent="1">
          <mxGeometry x="1270" y="-1310" width="80" height="80" as="geometry" />
        </mxCell>
        <mxCell id="fGPVnxJm0E0k_WgDvvx4-52" value="" style="edgeStyle=orthogonalEdgeStyle;rounded=0;orthogonalLoop=1;jettySize=auto;html=1;labelBackgroundColor=none;strokeColor=#DDA15E;fontColor=default;" edge="1" parent="1" source="fGPVnxJm0E0k_WgDvvx4-6" target="fGPVnxJm0E0k_WgDvvx4-7">
          <mxGeometry relative="1" as="geometry" />
        </mxCell>
        <mxCell id="fGPVnxJm0E0k_WgDvvx4-55" value="" style="edgeStyle=orthogonalEdgeStyle;rounded=0;orthogonalLoop=1;jettySize=auto;html=1;entryX=0;entryY=0.375;entryDx=0;entryDy=0;entryPerimeter=0;labelBackgroundColor=none;strokeColor=#DDA15E;fontColor=default;" edge="1" parent="1" source="fGPVnxJm0E0k_WgDvvx4-6" target="fGPVnxJm0E0k_WgDvvx4-2">
          <mxGeometry relative="1" as="geometry">
            <mxPoint x="1090" y="-1410" as="targetPoint" />
          </mxGeometry>
        </mxCell>
        <mxCell id="fGPVnxJm0E0k_WgDvvx4-6" value="admin" style="rounded=0;whiteSpace=wrap;html=1;labelBackgroundColor=none;fillColor=#BC6C25;strokeColor=#DDA15E;fontColor=#FEFAE0;" vertex="1" parent="1">
          <mxGeometry x="870" y="-1440" width="120" height="60" as="geometry" />
        </mxCell>
        <mxCell id="fGPVnxJm0E0k_WgDvvx4-53" value="" style="edgeStyle=orthogonalEdgeStyle;rounded=0;orthogonalLoop=1;jettySize=auto;html=1;labelBackgroundColor=none;strokeColor=#DDA15E;fontColor=default;" edge="1" parent="1" source="fGPVnxJm0E0k_WgDvvx4-7" target="fGPVnxJm0E0k_WgDvvx4-8">
          <mxGeometry relative="1" as="geometry" />
        </mxCell>
        <mxCell id="fGPVnxJm0E0k_WgDvvx4-60" value="" style="edgeStyle=orthogonalEdgeStyle;rounded=0;orthogonalLoop=1;jettySize=auto;html=1;labelBackgroundColor=none;strokeColor=#DDA15E;fontColor=default;" edge="1" parent="1" source="fGPVnxJm0E0k_WgDvvx4-7" target="fGPVnxJm0E0k_WgDvvx4-8">
          <mxGeometry relative="1" as="geometry" />
        </mxCell>
        <mxCell id="fGPVnxJm0E0k_WgDvvx4-7" value="forgot&amp;nbsp;&lt;div&gt;passwoerd&lt;/div&gt;" style="ellipse;whiteSpace=wrap;html=1;aspect=fixed;labelBackgroundColor=none;fillColor=#BC6C25;strokeColor=#DDA15E;fontColor=#FEFAE0;" vertex="1" parent="1">
          <mxGeometry x="890" y="-1320" width="80" height="80" as="geometry" />
        </mxCell>
        <mxCell id="fGPVnxJm0E0k_WgDvvx4-8" value="send email to user" style="ellipse;whiteSpace=wrap;html=1;aspect=fixed;labelBackgroundColor=none;fillColor=#BC6C25;strokeColor=#DDA15E;fontColor=#FEFAE0;" vertex="1" parent="1">
          <mxGeometry x="890" y="-1200" width="80" height="80" as="geometry" />
        </mxCell>
        <mxCell id="fGPVnxJm0E0k_WgDvvx4-10" value="mange sytem admins" style="rounded=0;whiteSpace=wrap;html=1;labelBackgroundColor=none;fillColor=#BC6C25;strokeColor=#DDA15E;fontColor=#FEFAE0;" vertex="1" parent="1">
          <mxGeometry x="870" y="-1040" width="140" height="60" as="geometry" />
        </mxCell>
        <mxCell id="fGPVnxJm0E0k_WgDvvx4-11" value="manage roles of use" style="rounded=0;whiteSpace=wrap;html=1;labelBackgroundColor=none;fillColor=#BC6C25;strokeColor=#DDA15E;fontColor=#FEFAE0;" vertex="1" parent="1">
          <mxGeometry x="1090" y="-1040" width="130" height="60" as="geometry" />
        </mxCell>
        <mxCell id="fGPVnxJm0E0k_WgDvvx4-12" value="manage user permission" style="rounded=0;whiteSpace=wrap;html=1;labelBackgroundColor=none;fillColor=#BC6C25;strokeColor=#DDA15E;fontColor=#FEFAE0;" vertex="1" parent="1">
          <mxGeometry x="1290" y="-1040" width="130" height="60" as="geometry" />
        </mxCell>
        <mxCell id="fGPVnxJm0E0k_WgDvvx4-17" value="" style="edgeStyle=orthogonalEdgeStyle;rounded=0;orthogonalLoop=1;jettySize=auto;html=1;labelBackgroundColor=none;strokeColor=#DDA15E;fontColor=default;" edge="1" parent="1" source="fGPVnxJm0E0k_WgDvvx4-15" target="fGPVnxJm0E0k_WgDvvx4-16">
          <mxGeometry relative="1" as="geometry" />
        </mxCell>
        <mxCell id="fGPVnxJm0E0k_WgDvvx4-15" value="manage attendance details" style="rounded=0;whiteSpace=wrap;html=1;labelBackgroundColor=none;fillColor=#BC6C25;strokeColor=#DDA15E;fontColor=#FEFAE0;" vertex="1" parent="1">
          <mxGeometry x="1440" y="-1370" width="170" height="40" as="geometry" />
        </mxCell>
        <mxCell id="fGPVnxJm0E0k_WgDvvx4-19" value="" style="edgeStyle=orthogonalEdgeStyle;rounded=0;orthogonalLoop=1;jettySize=auto;html=1;labelBackgroundColor=none;strokeColor=#DDA15E;fontColor=default;" edge="1" parent="1" source="fGPVnxJm0E0k_WgDvvx4-16" target="fGPVnxJm0E0k_WgDvvx4-18">
          <mxGeometry relative="1" as="geometry" />
        </mxCell>
        <mxCell id="fGPVnxJm0E0k_WgDvvx4-16" value="manage class details" style="rounded=0;whiteSpace=wrap;html=1;labelBackgroundColor=none;fillColor=#BC6C25;strokeColor=#DDA15E;fontColor=#FEFAE0;" vertex="1" parent="1">
          <mxGeometry x="1440" y="-1310" width="170" height="40" as="geometry" />
        </mxCell>
        <mxCell id="fGPVnxJm0E0k_WgDvvx4-22" value="" style="edgeStyle=orthogonalEdgeStyle;rounded=0;orthogonalLoop=1;jettySize=auto;html=1;labelBackgroundColor=none;strokeColor=#DDA15E;fontColor=default;" edge="1" parent="1" source="fGPVnxJm0E0k_WgDvvx4-18" target="fGPVnxJm0E0k_WgDvvx4-21">
          <mxGeometry relative="1" as="geometry" />
        </mxCell>
        <mxCell id="fGPVnxJm0E0k_WgDvvx4-18" value="manage student deatils" style="rounded=0;whiteSpace=wrap;html=1;labelBackgroundColor=none;fillColor=#BC6C25;strokeColor=#DDA15E;fontColor=#FEFAE0;" vertex="1" parent="1">
          <mxGeometry x="1440" y="-1250" width="170" height="40" as="geometry" />
        </mxCell>
        <mxCell id="fGPVnxJm0E0k_WgDvvx4-24" value="" style="edgeStyle=orthogonalEdgeStyle;rounded=0;orthogonalLoop=1;jettySize=auto;html=1;labelBackgroundColor=none;strokeColor=#DDA15E;fontColor=default;" edge="1" parent="1" source="fGPVnxJm0E0k_WgDvvx4-21" target="fGPVnxJm0E0k_WgDvvx4-23">
          <mxGeometry relative="1" as="geometry" />
        </mxCell>
        <mxCell id="fGPVnxJm0E0k_WgDvvx4-21" value="manage fees details" style="rounded=0;whiteSpace=wrap;html=1;labelBackgroundColor=none;fillColor=#BC6C25;strokeColor=#DDA15E;fontColor=#FEFAE0;" vertex="1" parent="1">
          <mxGeometry x="1440" y="-1190" width="170" height="40" as="geometry" />
        </mxCell>
        <mxCell id="fGPVnxJm0E0k_WgDvvx4-26" value="" style="edgeStyle=orthogonalEdgeStyle;rounded=0;orthogonalLoop=1;jettySize=auto;html=1;labelBackgroundColor=none;strokeColor=#DDA15E;fontColor=default;" edge="1" parent="1" source="fGPVnxJm0E0k_WgDvvx4-23" target="fGPVnxJm0E0k_WgDvvx4-25">
          <mxGeometry relative="1" as="geometry" />
        </mxCell>
        <mxCell id="fGPVnxJm0E0k_WgDvvx4-23" value="manage teacher profile" style="rounded=0;whiteSpace=wrap;html=1;labelBackgroundColor=none;fillColor=#BC6C25;strokeColor=#DDA15E;fontColor=#FEFAE0;" vertex="1" parent="1">
          <mxGeometry x="1440" y="-1130" width="170" height="40" as="geometry" />
        </mxCell>
        <mxCell id="fGPVnxJm0E0k_WgDvvx4-25" value="manage report" style="rounded=0;whiteSpace=wrap;html=1;labelBackgroundColor=none;fillColor=#BC6C25;strokeColor=#DDA15E;fontColor=#FEFAE0;" vertex="1" parent="1">
          <mxGeometry x="1440" y="-1070" width="170" height="40" as="geometry" />
        </mxCell>
        <mxCell id="fGPVnxJm0E0k_WgDvvx4-28" value="" style="edgeStyle=orthogonalEdgeStyle;rounded=0;orthogonalLoop=1;jettySize=auto;html=1;labelBackgroundColor=none;strokeColor=#DDA15E;fontColor=default;" edge="1" parent="1" source="fGPVnxJm0E0k_WgDvvx4-27" target="fGPVnxJm0E0k_WgDvvx4-15">
          <mxGeometry relative="1" as="geometry" />
        </mxCell>
        <mxCell id="fGPVnxJm0E0k_WgDvvx4-27" value="manage time table details" style="rounded=0;whiteSpace=wrap;html=1;labelBackgroundColor=none;fillColor=#BC6C25;strokeColor=#DDA15E;fontColor=#FEFAE0;" vertex="1" parent="1">
          <mxGeometry x="1440" y="-1440" width="170" height="40" as="geometry" />
        </mxCell>
        <mxCell id="fGPVnxJm0E0k_WgDvvx4-36" value="" style="endArrow=classic;html=1;rounded=0;exitX=1;exitY=0.5;exitDx=0;exitDy=0;entryX=0;entryY=0.75;entryDx=0;entryDy=0;labelBackgroundColor=none;strokeColor=#DDA15E;fontColor=default;" edge="1" parent="1" source="fGPVnxJm0E0k_WgDvvx4-5" target="fGPVnxJm0E0k_WgDvvx4-27">
          <mxGeometry width="50" height="50" relative="1" as="geometry">
            <mxPoint x="1380" y="-1340" as="sourcePoint" />
            <mxPoint x="1430" y="-1390" as="targetPoint" />
            <Array as="points" />
          </mxGeometry>
        </mxCell>
        <mxCell id="fGPVnxJm0E0k_WgDvvx4-41" value="" style="endArrow=classic;html=1;rounded=0;entryX=0;entryY=0.5;entryDx=0;entryDy=0;labelBackgroundColor=none;strokeColor=#DDA15E;fontColor=default;" edge="1" parent="1" target="fGPVnxJm0E0k_WgDvvx4-15">
          <mxGeometry width="50" height="50" relative="1" as="geometry">
            <mxPoint x="1355" y="-1270" as="sourcePoint" />
            <mxPoint x="1405" y="-1320" as="targetPoint" />
            <Array as="points" />
          </mxGeometry>
        </mxCell>
        <mxCell id="fGPVnxJm0E0k_WgDvvx4-42" value="" style="endArrow=classic;html=1;rounded=0;labelBackgroundColor=none;strokeColor=#DDA15E;fontColor=default;" edge="1" parent="1">
          <mxGeometry width="50" height="50" relative="1" as="geometry">
            <mxPoint x="1360" y="-1270" as="sourcePoint" />
            <mxPoint x="1440" y="-1280" as="targetPoint" />
            <Array as="points" />
          </mxGeometry>
        </mxCell>
        <mxCell id="fGPVnxJm0E0k_WgDvvx4-45" value="" style="endArrow=classic;html=1;rounded=0;exitX=1;exitY=0.5;exitDx=0;exitDy=0;entryX=0;entryY=0.25;entryDx=0;entryDy=0;labelBackgroundColor=none;strokeColor=#DDA15E;fontColor=default;" edge="1" parent="1" source="fGPVnxJm0E0k_WgDvvx4-5" target="fGPVnxJm0E0k_WgDvvx4-18">
          <mxGeometry width="50" height="50" relative="1" as="geometry">
            <mxPoint x="1380" y="-1200" as="sourcePoint" />
            <mxPoint x="1430" y="-1250" as="targetPoint" />
          </mxGeometry>
        </mxCell>
        <mxCell id="fGPVnxJm0E0k_WgDvvx4-46" value="" style="endArrow=classic;html=1;rounded=0;exitX=1;exitY=0.5;exitDx=0;exitDy=0;entryX=0;entryY=0.5;entryDx=0;entryDy=0;labelBackgroundColor=none;strokeColor=#DDA15E;fontColor=default;" edge="1" parent="1" source="fGPVnxJm0E0k_WgDvvx4-5" target="fGPVnxJm0E0k_WgDvvx4-21">
          <mxGeometry width="50" height="50" relative="1" as="geometry">
            <mxPoint x="1320" y="-1130" as="sourcePoint" />
            <mxPoint x="1370" y="-1180" as="targetPoint" />
          </mxGeometry>
        </mxCell>
        <mxCell id="fGPVnxJm0E0k_WgDvvx4-47" value="" style="endArrow=classic;html=1;rounded=0;entryX=0;entryY=0.5;entryDx=0;entryDy=0;labelBackgroundColor=none;strokeColor=#DDA15E;fontColor=default;" edge="1" parent="1" target="fGPVnxJm0E0k_WgDvvx4-23">
          <mxGeometry width="50" height="50" relative="1" as="geometry">
            <mxPoint x="1360" y="-1270" as="sourcePoint" />
            <mxPoint x="1390" y="-1140" as="targetPoint" />
          </mxGeometry>
        </mxCell>
        <mxCell id="fGPVnxJm0E0k_WgDvvx4-48" value="" style="endArrow=classic;html=1;rounded=0;exitX=1;exitY=0.5;exitDx=0;exitDy=0;entryX=0;entryY=0.75;entryDx=0;entryDy=0;labelBackgroundColor=none;strokeColor=#DDA15E;fontColor=default;" edge="1" parent="1" source="fGPVnxJm0E0k_WgDvvx4-5" target="fGPVnxJm0E0k_WgDvvx4-25">
          <mxGeometry width="50" height="50" relative="1" as="geometry">
            <mxPoint x="1290" y="-1140" as="sourcePoint" />
            <mxPoint x="1340" y="-1190" as="targetPoint" />
          </mxGeometry>
        </mxCell>
        <mxCell id="fGPVnxJm0E0k_WgDvvx4-49" value="" style="endArrow=classic;html=1;rounded=0;exitX=0.5;exitY=1;exitDx=0;exitDy=0;entryX=0.44;entryY=0.054;entryDx=0;entryDy=0;entryPerimeter=0;labelBackgroundColor=none;strokeColor=#DDA15E;fontColor=default;" edge="1" parent="1" source="fGPVnxJm0E0k_WgDvvx4-5" target="fGPVnxJm0E0k_WgDvvx4-10">
          <mxGeometry width="50" height="50" relative="1" as="geometry">
            <mxPoint x="1250" y="-1110" as="sourcePoint" />
            <mxPoint x="1300" y="-1160" as="targetPoint" />
          </mxGeometry>
        </mxCell>
        <mxCell id="fGPVnxJm0E0k_WgDvvx4-50" value="" style="endArrow=classic;html=1;rounded=0;exitX=0.5;exitY=1;exitDx=0;exitDy=0;entryX=0.449;entryY=0.029;entryDx=0;entryDy=0;entryPerimeter=0;labelBackgroundColor=none;strokeColor=#DDA15E;fontColor=default;" edge="1" parent="1" source="fGPVnxJm0E0k_WgDvvx4-5" target="fGPVnxJm0E0k_WgDvvx4-12">
          <mxGeometry width="50" height="50" relative="1" as="geometry">
            <mxPoint x="1270" y="-1070" as="sourcePoint" />
            <mxPoint x="1320" y="-1120" as="targetPoint" />
          </mxGeometry>
        </mxCell>
        <mxCell id="fGPVnxJm0E0k_WgDvvx4-51" value="" style="endArrow=classic;html=1;rounded=0;exitX=0.5;exitY=1;exitDx=0;exitDy=0;entryX=0.5;entryY=0;entryDx=0;entryDy=0;labelBackgroundColor=none;strokeColor=#DDA15E;fontColor=default;" edge="1" parent="1" source="fGPVnxJm0E0k_WgDvvx4-5" target="fGPVnxJm0E0k_WgDvvx4-11">
          <mxGeometry width="50" height="50" relative="1" as="geometry">
            <mxPoint x="1230" y="-1050" as="sourcePoint" />
            <mxPoint x="1280" y="-1100" as="targetPoint" />
          </mxGeometry>
        </mxCell>
        <mxCell id="fGPVnxJm0E0k_WgDvvx4-57" value="" style="endArrow=classic;html=1;rounded=0;entryX=0;entryY=0.5;entryDx=0;entryDy=0;exitX=1;exitY=0.5;exitDx=0;exitDy=0;labelBackgroundColor=none;strokeColor=#DDA15E;fontColor=default;" edge="1" parent="1" source="fGPVnxJm0E0k_WgDvvx4-4" target="fGPVnxJm0E0k_WgDvvx4-3">
          <mxGeometry width="50" height="50" relative="1" as="geometry">
            <mxPoint x="1210" y="-1230" as="sourcePoint" />
            <mxPoint x="1260" y="-1280" as="targetPoint" />
          </mxGeometry>
        </mxCell>
      </root>
    </mxGraphModel>
  </diagram>
</mxfile>
